<svg width="21" height="20" viewBox="0 0 21 20" fill="none" xmlns="http://www.w3.org/2000/svg">
<g clip-path="url(#clip0_33_82)">
<path d="M1.45837 0.833374H4.79171L7.02504 11.9917C7.10124 12.3754 7.30996 12.72 7.61466 12.9653C7.91936 13.2106 8.30062 13.3409 8.69171 13.3334H16.7917C17.1828 13.3409 17.5641 13.2106 17.8688 12.9653C18.1734 12.72 18.3822 12.3754 18.4584 11.9917L19.7917 5.00004H5.62504M8.95837 17.5C8.95837 17.9603 8.58528 18.3334 8.12504 18.3334C7.6648 18.3334 7.29171 17.9603 7.29171 17.5C7.29171 17.0398 7.6648 16.6667 8.12504 16.6667C8.58528 16.6667 8.95837 17.0398 8.95837 17.5ZM18.125 17.5C18.125 17.9603 17.7519 18.3334 17.2917 18.3334C16.8315 18.3334 16.4584 17.9603 16.4584 17.5C16.4584 17.0398 16.8315 16.6667 17.2917 16.6667C17.7519 16.6667 18.125 17.0398 18.125 17.5Z" stroke="#1E1E1E" stroke-width="2" stroke-linecap="round" stroke-linejoin="round"/>
</g>
<defs>
<clipPath id="clip0_33_82">
<rect width="20" height="20" fill="white" transform="translate(0.625)"/>
</clipPath>
</defs>
</svg>
