<svg width="25" height="24" viewBox="0 0 25 24" fill="none" xmlns="http://www.w3.org/2000/svg">
<path fill-rule="evenodd" clip-rule="evenodd" d="M11.375 4C7.50901 4 4.375 7.13401 4.375 11C4.375 14.866 7.50901 18 11.375 18C15.241 18 18.375 14.866 18.375 11C18.375 7.13401 15.241 4 11.375 4ZM2.375 11C2.375 6.02944 6.40444 2 11.375 2C16.3456 2 20.375 6.02944 20.375 11C20.375 15.9706 16.3456 20 11.375 20C6.40444 20 2.375 15.9706 2.375 11Z" fill="#484C52"/>
<path fill-rule="evenodd" clip-rule="evenodd" d="M16.3179 15.9429C16.7084 15.5524 17.3416 15.5524 17.7321 15.9429L22.0821 20.2929C22.4727 20.6834 22.4727 21.3166 22.0821 21.7071C21.6916 22.0977 21.0584 22.0977 20.6679 21.7071L16.3179 17.3571C15.9274 16.9666 15.9274 16.3334 16.3179 15.9429Z" fill="#484C52"/>
</svg>
